<?xml version="1.0" encoding="UTF-8" standalone="no"?>
<!-- Created with Inkscape (http://www.inkscape.org/) -->

<svg
   xmlns:dc="http://purl.org/dc/elements/1.1/"
   xmlns:cc="http://creativecommons.org/ns#"
   xmlns:rdf="http://www.w3.org/1999/02/22-rdf-syntax-ns#"
   xmlns:svg="http://www.w3.org/2000/svg"
   xmlns="http://www.w3.org/2000/svg"
   xmlns:sodipodi="http://sodipodi.sourceforge.net/DTD/sodipodi-0.dtd"
   xmlns:inkscape="http://www.inkscape.org/namespaces/inkscape"
   width="217.31219"
   height="322.25"
   viewBox="0 0 217.3122 322.25"
   id="svg4619"
   version="1.1"
   inkscape:version="0.92.2pre0 (973e216, 2017-07-25)"
   sodipodi:docname="bust.svg">
  <defs
     id="defs4621" />
  <sodipodi:namedview
     id="base"
     pagecolor="#ffffff"
     bordercolor="#666666"
     borderopacity="1.0"
     inkscape:pageopacity="0.0"
     inkscape:pageshadow="2"
     inkscape:zoom="1.4"
     inkscape:cx="125.9584"
     inkscape:cy="235.8007"
     inkscape:document-units="px"
     inkscape:current-layer="layer1"
     showgrid="true"
     inkscape:object-nodes="true"
     inkscape:snap-smooth-nodes="true"
     inkscape:snap-midpoints="false"
     inkscape:snap-object-midpoints="true"
     inkscape:snap-bbox="true"
     inkscape:snap-bbox-midpoints="false"
     inkscape:snap-bbox-edge-midpoints="true"
     inkscape:bbox-nodes="true"
     inkscape:snap-grids="true"
     units="px"
     fit-margin-top="0"
     fit-margin-left="0"
     fit-margin-right="0"
     fit-margin-bottom="0"
     inkscape:window-width="1436"
     inkscape:window-height="1063"
     inkscape:window-x="484"
     inkscape:window-y="0"
     inkscape:window-maximized="0"
     inkscape:snap-nodes="true"
     inkscape:snap-global="true">
    <inkscape:grid
       type="xygrid"
       id="grid5167"
       originx="-251.34393"
       originy="-392.00001" />
  </sodipodi:namedview>
  <metadata
     id="metadata4624">
    <rdf:RDF>
      <cc:Work
         rdf:about="">
        <dc:format>image/svg+xml</dc:format>
        <dc:type
           rdf:resource="http://purl.org/dc/dcmitype/StillImage" />
        <dc:title></dc:title>
      </cc:Work>
    </rdf:RDF>
  </metadata>
  <g
     inkscape:label="Layer 1"
     inkscape:groupmode="layer"
     id="layer1"
     transform="translate(-251.3439,-338.11219)">
    <path
       style="fill:#fee4da;fill-opacity:1;fill-rule:evenodd;stroke:#000000;stroke-width:1;stroke-linecap:butt;stroke-linejoin:miter;stroke-miterlimit:4;stroke-dasharray:none;stroke-opacity:1"
       d="m 344.99999,342.36219 c -8,5 -10,10 -15,20 -5,10 -5,30 0,45 5,15 10,15 15,25 5,10 2.84705,21.45084 10e-6,25 -6.37175,7.94313 -29.73019,-2.31099 -45,10 -15.26981,12.31099 -21.18246,34.14815 -30,65 -8.81754,30.85185 -25,110 -15,120 10,10 200,10 210,0 10,-10 -6.18246,-89.14815 -15,-120 -8.81754,-30.85185 -14.73019,-52.68901 -30,-65 -15.26981,-12.31099 -38.62825,-2.05687 -45,-10 -2.33239,-2.90759 -5.00001,-15 -10e-6,-25 5,-10 10,-10 15,-25 5,-15 5,-35 0,-45 -5,-10 -7,-15 -15,-20 -8,-5 -22,-5 -30,0 z"
       id="path5921"
       inkscape:connector-curvature="0"
       sodipodi:nodetypes="zzzzszzzzzzszzzzz" />
    <path
       style="fill:#d87c82;fill-opacity:1;fill-rule:evenodd;stroke:#000000;stroke-width:1px;stroke-linecap:butt;stroke-linejoin:miter;stroke-opacity:1"
       d="m 355,442.36133 v 40 c 0,0 -0.36219,2.4602 -1,4 -0.90199,2.1776 -2.62182,4.08788 -4,6 -2.17909,3.02332 -3,6 -6,9 -2.63523,2.63524 -7,8 -7,8 l 3,3 c 0,0 3.39907,-1.54646 5,-2.5 5.24364,-3.12317 15,-10.5 15,-10.5 0,0 9.75636,7.37683 15,10.5 1.60093,0.95354 5,2.5 5,2.5 l 3,-3 c 0,0 -4.36477,-5.36476 -7,-8 -3,-3 -3.82091,-5.97668 -6,-9 -1.37818,-1.91212 -3.09801,-3.8224 -4,-6 -0.63781,-1.5398 -1,-4 -1,-4 v -40 h -5 z"
       id="path5237"
       inkscape:connector-curvature="0"
       sodipodi:nodetypes="ccsssccscsccssscccc" />
    <g
       id="g2983">
      <path
         sodipodi:nodetypes="sssssssssssss"
         inkscape:connector-curvature="0"
         id="path11575"
         d="m 393.67708,399.20273 c 0.59658,0.22575 1.08031,0.22692 1.71442,0.1913 0.73042,-0.041 1.53541,-0.36524 2.09274,-0.85667 0.58193,-0.51312 0.76228,-1.07944 1.23718,-1.69992 0.67544,-0.88249 1.59912,-1.5262 2.37245,-2.31751 1.17897,-1.20638 2.59711,-2.23392 3.45503,-3.70324 0.78986,-1.35275 1.38519,-2.74592 1.43937,-4.5035 0.0947,-3.07117 0.35742,-0.36125 -0.19966,-5.27136 -0.19814,-1.74643 -1.35722,-3.39282 -2.81663,-4.14515 -3.91803,-2.01975 -5.11048,-1.25272 -8.17425,0.38892 -3.60193,1.93001 4.3048,5.44433 3.33683,10.09662 -0.85819,4.12464 -6.56748,7.56857 -5.05936,10.95278 0.13906,0.31204 0.29053,0.74991 0.60188,0.86773 z"
         style="fill:#f7a396;fill-opacity:1;fill-rule:evenodd;stroke:none;stroke-width:0.09289195px;stroke-linecap:butt;stroke-linejoin:miter;stroke-opacity:1" />
      <path
         sodipodi:nodetypes="sssssssssssssssss"
         inkscape:connector-curvature="0"
         id="path11561"
         d="m 391.42314,392.60715 c 0.18863,-1.63454 1.13766,-3.10158 1.36813,-4.73034 0.0883,-0.62403 0.1397,-1.2783 0,-1.89214 -0.23429,-1.02944 -1.13384,-1.80876 -1.36813,-2.83821 -0.20955,-0.92076 -0.2643,-1.93273 0,-2.8382 0.31766,-1.08825 1.00238,-2.08572 1.82417,-2.83821 0.50965,-0.46668 1.18386,-0.70912 1.82416,-0.94607 1.16409,-0.43079 2.39626,-1.04584 3.61709,-0.84587 1.6388,0.26843 3.27454,1.26473 4.28187,2.63216 1.27384,1.72921 1.75425,4.11906 1.67362,6.2937 -0.0805,2.17044 -0.99773,4.30319 -2.13059,6.12994 -1.29906,2.09477 -3.65445,3.2752 -5.1537,5.22081 -0.55437,0.71941 -0.71266,1.76473 -1.39547,2.35346 -0.62339,0.53749 -1.46327,0.99488 -2.26942,0.90655 -0.54134,-0.0593 -1.03071,-0.48215 -1.36768,-0.92559 -0.44254,-0.58235 -0.57949,-1.36839 -0.71995,-2.09544 -0.22678,-1.17387 -0.32127,-2.39782 -0.1841,-3.58655 z"
         style="fill:#fee4da;fill-opacity:1;fill-rule:evenodd;stroke:none;stroke-width:0.09289195px;stroke-linecap:butt;stroke-linejoin:miter;stroke-opacity:1" />
      <path
         sodipodi:nodetypes="ssssssssssss"
         inkscape:connector-curvature="0"
         id="path11571"
         d="m 393.24731,393.08019 c 0,-1.89214 1.21214,-2.25934 1.82416,-2.8621 0.45604,-0.44914 1.36812,-0.92218 1.36812,-2.34128 0,-1.23469 -1.39609,-2.05822 -1.71922,-3.24654 -0.28776,-1.0583 -0.47298,-2.24738 -0.15106,-3.29503 0.26584,-0.86515 0.87938,-1.65974 1.61975,-2.14426 0.73318,-0.47982 1.67507,-0.66992 2.53833,-0.58744 0.33382,0.0319 0.72431,0.13085 0.92506,0.40934 1.86713,2.59012 2.5111,4.58635 1.45596,7.62966 -0.8778,2.53185 -3.70562,6.31256 -5.9885,7.5901 -0.40073,0.22426 -0.67626,0.56329 -1.078,0.34097 -0.44603,-0.24683 -0.7946,-0.96905 -0.7946,-1.49342 z"
         style="fill:#cd8679;fill-opacity:1;fill-rule:evenodd;stroke:none;stroke-width:0.09289195px;stroke-linecap:butt;stroke-linejoin:miter;stroke-opacity:1" />
      <path
         sodipodi:nodetypes="sssssssssssss"
         inkscape:connector-curvature="0"
         id="path11573"
         d="m 395.18664,393.95938 c -0.72464,-0.14216 -0.007,-1.62377 0.34087,-2.29829 0.6084,-1.17976 2.24263,-1.60211 2.73624,-2.83821 0.34904,-0.87406 0.26431,-1.93273 0,-2.83821 -0.31765,-1.08824 -1.59412,-1.72649 -1.82416,-2.83821 -0.19405,-0.93776 -0.0643,-2.0454 0.45604,-2.8382 0.49885,-0.75999 1.09438,-1.65803 1.98077,-1.65802 0.47907,0 1.64642,0.29043 2.12359,0.71195 0.88139,0.77859 1.13535,2.13492 1.36813,3.31124 0.27508,1.39012 0.21914,2.85653 0,4.25731 -0.15401,0.98437 -0.40481,1.99108 -0.91208,2.83821 -0.63878,1.06672 -2.09151,2.1871 -3.10941,2.8669 -1.1339,0.75727 -2.81912,1.39041 -3.15999,1.32353 z"
         style="fill:#f7a396;fill-opacity:1;fill-rule:evenodd;stroke:none;stroke-width:0.09289195px;stroke-linecap:butt;stroke-linejoin:miter;stroke-opacity:1" />
      <path
         inkscape:connector-curvature="0"
         id="path11575-2"
         d="m 398.18892,375.77049 c -1.06962,-0.0104 -2.13963,0.50783 -3.1582,0.88477 -0.6403,0.23695 -1.31457,0.47863 -1.82422,0.94531 -0.82179,0.75249 -1.50656,1.74964 -1.82422,2.83789 -0.2643,0.90547 -0.20955,1.91909 0,2.83985 0.23429,1.02945 1.1329,1.80845 1.36719,2.83789 0.1397,0.61384 0.0883,1.26659 0,1.89062 -0.23047,1.62876 -1.17856,3.09593 -1.36719,4.73047 -0.13717,1.18873 -0.0432,2.41402 0.18359,3.58789 0.14046,0.72705 0.27621,1.51335 0.71875,2.0957 0.33697,0.44344 0.8278,0.86649 1.36914,0.92579 0.008,8.5e-4 0.0156,-0.003 0.0234,-0.002 0.57733,0.21009 1.05282,0.21446 1.67188,0.17969 0.73041,-0.041 1.53642,-0.36404 2.09374,-0.85547 0.58193,-0.51312 0.76143,-1.08069 1.23633,-1.70117 0.67544,-0.88249 1.59972,-1.5251 2.37305,-2.31641 1.17897,-1.20638 2.59716,-2.2338 3.45508,-3.70312 0.78986,-1.35275 1.38527,-2.74633 1.43945,-4.50391 0.0947,-3.07117 0.35786,-0.36137 -0.19922,-5.27148 -0.19814,-1.74643 -1.35699,-3.3922 -2.8164,-4.14453 -1.80808,-0.93207 -3.02995,-1.25251 -4.12891,-1.18555 -0.0521,-0.01 -0.1041,-0.0247 -0.15625,-0.0332 -0.1526,-0.025 -0.30423,-0.0376 -0.45703,-0.0391 z"
         style="fill:none;fill-opacity:1;fill-rule:evenodd;stroke:#000000;stroke-width:1;stroke-linecap:butt;stroke-linejoin:miter;stroke-miterlimit:4;stroke-dasharray:none;stroke-opacity:1" />
    </g>
    <g
       id="g2990">
      <path
         sodipodi:nodetypes="zzzzzzzzzzzzzzzz"
         inkscape:connector-curvature="0"
         id="path1500"
         d="m 324.27288,398.01023 c -0.70309,-0.97633 2.72912,-2.57997 2.71078,-4.56099 -0.0183,-1.98103 -1.78885,-4.15366 -1.89325,-6.2391 -0.10439,-2.08544 1.76949,-3.91468 1.16177,-5.89487 -0.60773,-1.9802 -5.52866,-3.47546 -6.19607,-4.51797 -0.66742,-1.04252 -0.23651,-0.77843 0.86056,-0.98965 1.09708,-0.21122 1.66446,-0.20179 2.66775,-0.12909 1.0033,0.0727 1.65795,0.17382 2.79684,0.64543 1.1389,0.4716 2.2887,1.52729 2.75381,2.71078 0.46511,1.18348 0.75205,2.41875 0.6024,3.52832 -0.14966,1.10956 -1.00242,1.66931 -1.29085,2.92592 -0.28843,1.2566 -0.33646,2.39484 0,3.70043 0.33646,1.30559 0.69441,1.39338 0.86056,2.53867 0.16615,1.14529 0.35501,2.70021 -0.30119,4.04465 -0.65621,1.34445 -1.74657,3.66365 -3.006,3.58943 -1.25943,-0.0742 -1.02403,-0.37563 -1.72711,-1.35196 z"
         style="fill:#f7a396;fill-opacity:1;stroke:none;stroke-width:0.08605654px;stroke-linecap:butt;stroke-linejoin:miter;stroke-opacity:1" />
      <path
         sodipodi:nodetypes="sssssssssssssssss"
         inkscape:connector-curvature="0"
         id="path11561-6"
         d="m 327.84205,392.25551 c -0.18983,-1.58594 -1.14496,-3.00936 -1.3769,-4.58968 -0.0889,-0.60548 -0.1406,-1.24029 0,-1.83588 0.23579,-0.99883 1.14111,-1.75498 1.3769,-2.75381 0.2109,-0.89338 0.26601,-1.87526 0,-2.75381 -0.31969,-1.05588 -1.00881,-2.02369 -1.83587,-2.75381 -0.51292,-0.4528 -1.19147,-0.68803 -1.83587,-0.91793 -1.17157,-0.41799 -2.41165,-1.01475 -3.64031,-0.82072 -1.64933,0.26045 -3.29556,1.22712 -4.30936,2.55389 -1.28203,1.67779 -1.76552,3.99657 -1.68437,6.10654 0.081,2.10591 1.00414,4.17524 2.14426,5.94767 1.30741,2.03248 3.67792,3.17781 5.1868,5.06556 0.55793,0.69802 0.9473,1.69395 1.53445,2.36759 0.49346,0.56615 1.02563,1.48833 2.59821,1.49107 0.9574,0.002 0.67935,-0.48812 0.95536,-1.04464 0.31967,-0.64455 0.56007,-1.87671 0.70143,-2.58215 0.22823,-1.13897 0.32333,-2.32652 0.18527,-3.47989 z"
         style="fill:#fee4da;fill-opacity:1;fill-rule:evenodd;stroke:none;stroke-width:0.09179364px;stroke-linecap:butt;stroke-linejoin:miter;stroke-opacity:1" />
      <path
         inkscape:connector-curvature="0"
         id="path11573-5"
         d="m 320.81986,378.65069 c -0.11051,0.002 -0.22033,0.008 -0.32893,0.0177 -0.11037,0.0102 -0.22665,0.0284 -0.34053,0.0565 -0.5511,0.0551 -1.52115,0.31713 -1.94669,0.67954 -0.88705,0.75544 -1.14264,2.0715 -1.37691,3.21283 -0.27685,1.34879 -0.22055,2.77159 0,4.13072 0.15499,0.95509 0.40735,1.93187 0.91788,2.75381 0.64288,1.035 2.10503,2.12212 3.12947,2.78171 0.85625,0.5513 2.02476,1.35038 2.69985,1.53004 0.18498,0.12474 0.36813,0.23798 0.54761,0.33481 0.4033,0.21759 0.68063,0.54666 1.08495,0.33095 0.44889,-0.23949 0.88884,0.0419 0.88883,-0.95794 0,-1.83587 -1.24596,-2.8095 -1.86191,-3.39434 -0.45897,-0.43579 -1.37691,-0.89486 -1.37691,-2.27176 0,-1.19798 1.34188,-2.18638 1.66708,-3.33937 0.28961,-1.02683 0.4761,-2.18054 0.15211,-3.19704 -0.26755,-0.83941 -0.88508,-1.61037 -1.6302,-2.08048 -0.64565,-0.40736 -1.45214,-0.59955 -2.2257,-0.58761 z"
         style="fill:#f7a396;fill-opacity:1;fill-rule:evenodd;stroke:none;stroke-width:0.09179364px;stroke-linecap:butt;stroke-linejoin:miter;stroke-opacity:1"
         sodipodi:nodetypes="cccssscscccccsscccc" />
      <path
         sodipodi:nodetypes="csssssscssssssssssc"
         inkscape:connector-curvature="0"
         id="path1525"
         d="m 326.03104,393.52497 c -0.87526,-0.40368 -1.50985,-0.53141 -2.70479,-1.10841 -1.29377,-0.62473 -1.81068,-1.20264 -2.92592,-2.10839 -0.74019,-0.60114 -1.53432,-1.22199 -1.9793,-2.06535 -0.55395,-1.0499 -0.69663,-2.29873 -0.73148,-3.48529 -0.0285,-0.97119 0.12368,-1.96093 0.43028,-2.8829 0.26731,-0.80379 0.61037,-1.63398 1.2048,-2.23747 0.49563,-0.50319 1.85021,-1.03268 1.85021,-1.03268 0,0 -1.3261,-0.007 -1.93627,0.21515 -0.53449,0.19469 -1.05556,0.50979 -1.41993,0.94662 -0.44032,0.52787 -0.62423,1.23358 -0.81754,1.89324 -0.24932,0.85081 -0.40792,1.73842 -0.43028,2.62473 -0.0291,1.15429 0.0847,2.32794 0.38725,3.44226 0.18507,0.68162 0.46071,1.35406 0.86057,1.93627 0.47081,0.68552 1.12397,1.23333 1.76416,1.76416 0.54816,0.45453 1.13992,0.86212 1.76415,1.20479 0.67027,0.36794 1.59671,1.0211 2.28696,1.35002 0.55601,0.26495 1.21311,0.7149 1.7788,0.51557 0.44874,-0.15812 0.70283,-0.19019 0.61833,-0.97232 z"
         style="fill:#cd8679;fill-opacity:1;stroke:none;stroke-width:0.08605654px;stroke-linecap:butt;stroke-linejoin:miter;stroke-opacity:1" />
      <path
         inkscape:connector-curvature="0"
         id="path1500-6"
         d="m 321.83907,375.71197 c -0.37922,0.014 -0.77798,0.0616 -1.27735,0.1543 -0.15963,6.7e-4 -0.31909,0.0139 -0.47851,0.0391 -1.64933,0.26045 -3.29675,1.22597 -4.31055,2.55274 -1.28203,1.67779 -1.76474,3.99745 -1.68359,6.10742 0.081,2.10591 1.00441,4.17484 2.14453,5.94727 1.30741,2.03248 3.67666,3.17865 5.18554,5.0664 0.55794,0.69802 0.94801,1.69355 1.53516,2.36719 0.49346,0.56615 1.02508,1.48749 2.59766,1.49023 0.0834,0.005 0.16621,-0.002 0.24804,-0.0176 0.20459,-0.0265 0.33132,-0.0854 0.40821,-0.17383 0.97759,-0.55354 1.81074,-2.29441 2.34961,-3.39844 0.6562,-1.34444 0.46888,-2.89768 0.30273,-4.04297 -0.16615,-1.14529 -0.52487,-1.23347 -0.86133,-2.53906 -0.33646,-1.30559 -0.28843,-2.44457 0,-3.70117 0.28843,-1.25661 1.14136,-1.81622 1.29102,-2.92578 0.14965,-1.10957 -0.13841,-2.34387 -0.60352,-3.52735 -0.46511,-1.18349 -1.61305,-2.23933 -2.75195,-2.71094 -1.13889,-0.4716 -1.79358,-0.57378 -2.79688,-0.64648 -0.50164,-0.0363 -0.89443,-0.056 -1.29882,-0.041 z"
         style="fill:none;fill-opacity:1;stroke:#000000;stroke-width:1;stroke-linecap:butt;stroke-linejoin:miter;stroke-miterlimit:4;stroke-dasharray:none;stroke-opacity:1" />
    </g>
  </g>
</svg>
