<?xml version="1.0" encoding="UTF-8" standalone="no"?>
<!-- Created with Inkscape (http://www.inkscape.org/) -->

<svg
   xmlns:dc="http://purl.org/dc/elements/1.1/"
   xmlns:cc="http://creativecommons.org/ns#"
   xmlns:rdf="http://www.w3.org/1999/02/22-rdf-syntax-ns#"
   xmlns:svg="http://www.w3.org/2000/svg"
   xmlns="http://www.w3.org/2000/svg"
   xmlns:sodipodi="http://sodipodi.sourceforge.net/DTD/sodipodi-0.dtd"
   xmlns:inkscape="http://www.inkscape.org/namespaces/inkscape"
   width="210mm"
   height="297mm"
   viewBox="0 0 744.09448819 1052.3622047"
   id="svg10929"
   version="1.1"
   inkscape:version="0.91 r13725"
   sodipodi:docname="ear.svg">
  <defs
     id="defs10931" />
  <sodipodi:namedview
     id="base"
     pagecolor="#ffffff"
     bordercolor="#666666"
     borderopacity="1.0"
     inkscape:pageopacity="0.0"
     inkscape:pageshadow="2"
     inkscape:zoom="1"
     inkscape:cx="358.21912"
     inkscape:cy="732.42118"
     inkscape:document-units="px"
     inkscape:current-layer="layer1"
     showgrid="true"
     inkscape:snap-global="false"
     inkscape:window-width="1316"
     inkscape:window-height="1183"
     inkscape:window-x="604"
     inkscape:window-y="0"
     inkscape:window-maximized="0">
    <inkscape:grid
       type="xygrid"
       id="grid11559" />
  </sodipodi:namedview>
  <metadata
     id="metadata10934">
    <rdf:RDF>
      <cc:Work
         rdf:about="">
        <dc:format>image/svg+xml</dc:format>
        <dc:type
           rdf:resource="http://purl.org/dc/dcmitype/StillImage" />
        <dc:title></dc:title>
      </cc:Work>
    </rdf:RDF>
  </metadata>
  <g
     inkscape:label="Layer 1"
     inkscape:groupmode="layer"
     id="layer1">
    <path
       style="fill:#f7a483;fill-opacity:1;fill-rule:evenodd;stroke:none;stroke-width:1px;stroke-linecap:butt;stroke-linejoin:miter;stroke-opacity:1"
       d="m 294.71201,427.07778 c 6.54082,2.38623 13.25073,5.67981 20.20305,5.3033 8.00831,-0.43369 16.36535,-3.39184 22.47589,-8.5863 6.38026,-5.42374 7.42012,-15.15976 12.6269,-21.71827 7.40543,-9.32795 17.53264,-16.13194 26.01144,-24.49621 12.92608,-12.75148 28.47449,-23.61258 37.88072,-39.14341 8.65996,-14.29864 15.18708,-29.0245 15.78116,-47.6022 1.03809,-32.46246 3.91867,-3.81849 -2.18904,-55.7186 -2.17239,-18.4598 -14.88057,-35.8623 -30.8814,-43.81442 -42.95709,-21.3489 -56.03103,-13.24134 -89.62193,4.11092 -39.49136,20.4003 47.1975,57.54679 36.5847,106.72175 -9.40912,43.59766 -72.0054,80.00019 -55.47048,115.77148 1.52461,3.29831 3.18542,7.92662 6.59899,9.17196 z"
       id="path11575"
       inkscape:connector-curvature="0"
       sodipodi:nodetypes="sssssssssssss" />
    <path
       style="fill:#ffe1c3;fill-rule:evenodd;stroke:none;stroke-width:1px;stroke-linecap:butt;stroke-linejoin:miter;stroke-opacity:1;fill-opacity:1"
       d="m 270,357.3622 c 2.06807,-17.27718 12.47322,-32.78393 15,-50 0.96809,-6.596 1.53169,-13.51167 0,-20 -2.56872,-10.88125 -12.43128,-19.11875 -15,-30 -2.29753,-9.73249 -2.89784,-20.42908 0,-30 3.48277,-11.50281 10.98999,-22.04612 20,-30 5.58777,-4.93279 12.97985,-7.49539 20,-10 12.76302,-4.55351 26.27244,-11.05462 39.65755,-8.94091 17.96773,2.83737 35.90183,13.36825 46.94618,27.82205 13.96634,18.27784 19.23351,43.53872 18.34948,66.52473 -0.88232,22.94173 -10.93908,45.485 -23.35962,64.79385 -14.24291,22.14186 -40.06722,34.61907 -56.50491,55.1842 -6.07808,7.60426 -7.81358,18.65336 -15.29983,24.87621 -6.83478,5.68132 -16.04324,10.51596 -24.88179,9.58232 -5.93517,-0.62695 -11.30062,-5.09639 -14.9952,-9.78354 -4.85197,-6.15548 -6.35347,-14.46393 -7.89347,-22.14898 -2.4864,-12.40787 -3.5224,-25.34508 -2.01839,-37.90993 z"
       id="path11561"
       inkscape:connector-curvature="0"
       sodipodi:nodetypes="sssssssssssssssss" />
    <path
       style="fill:#cd8669;fill-rule:evenodd;stroke:none;stroke-width:1px;stroke-linecap:butt;stroke-linejoin:miter;stroke-opacity:1;fill-opacity:1"
       d="m 290,362.3622 c 0,-20 13.28982,-23.88128 20,-30.25254 5,-4.74746 15,-9.74746 15,-24.74746 0,-13.05074 -15.30666,-21.75544 -18.84937,-34.31613 -3.15505,-11.18624 -5.18579,-23.75486 -1.65624,-34.82864 2.91467,-9.14461 9.64147,-17.54355 17.75877,-22.66494 8.03857,-5.07172 18.36537,-7.08109 27.83009,-6.20926 3.66006,0.33714 7.94129,1.38307 10.14234,4.32673 20.47106,27.37772 27.53153,48.47803 15.96311,80.64596 -9.62423,26.76178 -40.62822,66.72405 -65.65756,80.22779 -4.39365,2.37044 -7.41455,5.95398 -11.81921,3.60404 C 293.82173,375.53878 290,367.90483 290,362.3622 Z"
       id="path11571"
       inkscape:connector-curvature="0"
       sodipodi:nodetypes="ssssssssssss" />
    <path
       style="fill:#f7a483;fill-opacity:1;fill-rule:evenodd;stroke:none;stroke-width:1px;stroke-linecap:butt;stroke-linejoin:miter;stroke-opacity:1"
       d="m 311.26269,371.65535 c -7.94487,-1.50266 -0.0765,-17.16339 3.73731,-24.29315 6.67052,-12.47013 24.58804,-16.93437 30,-30 3.82683,-9.2388 2.89784,-20.42908 0,-30 -3.48277,-11.50281 -17.47785,-18.24912 -20,-30 -2.1275,-9.91219 -0.70558,-21.62001 5,-30 5.46938,-8.03308 11.99875,-17.52539 21.717,-17.52538 5.25254,0 18.05129,3.06988 23.283,7.52538 9.66347,8.22973 12.44788,22.56626 15,35 3.01599,14.69367 2.40273,30.19369 0,45 -1.68847,10.40482 -4.43822,21.0458 -10,30 -7.00351,11.2753 -22.93119,23.11778 -34.09138,30.30331 C 333.47668,365.66985 315,372.3622 311.26269,371.65535 Z"
       id="path11573"
       inkscape:connector-curvature="0"
       sodipodi:nodetypes="sssssssssssss" />
  </g>
</svg>
