<?xml version="1.0" encoding="UTF-8" standalone="no"?>
<!-- Created with Inkscape (http://www.inkscape.org/) -->

<svg
   xmlns:dc="http://purl.org/dc/elements/1.1/"
   xmlns:cc="http://creativecommons.org/ns#"
   xmlns:rdf="http://www.w3.org/1999/02/22-rdf-syntax-ns#"
   xmlns:svg="http://www.w3.org/2000/svg"
   xmlns="http://www.w3.org/2000/svg"
   xmlns:sodipodi="http://sodipodi.sourceforge.net/DTD/sodipodi-0.dtd"
   xmlns:inkscape="http://www.inkscape.org/namespaces/inkscape"
   width="2039.5065"
   height="4502"
   viewBox="0 0 2039.5063 4502"
   id="svg2"
   version="1.1"
   inkscape:version="0.91 r13725"
   sodipodi:docname="gauge.svg">
  <defs
     id="defs4" />
  <sodipodi:namedview
     id="base"
     pagecolor="#ffffff"
     bordercolor="#666666"
     borderopacity="1.0"
     inkscape:pageopacity="0.0"
     inkscape:pageshadow="2"
     inkscape:zoom="0.25"
     inkscape:cx="1020.281"
     inkscape:cy="1446.6297"
     inkscape:document-units="px"
     inkscape:current-layer="layer1"
     showgrid="true"
     showguides="false"
     inkscape:snap-bbox="false"
     inkscape:bbox-nodes="true"
     inkscape:snap-bbox-edge-midpoints="false"
     inkscape:bbox-paths="true"
     inkscape:window-width="1208"
     inkscape:window-height="1183"
     inkscape:window-x="712"
     inkscape:window-y="0"
     inkscape:window-maximized="0"
     fit-margin-top="0"
     fit-margin-left="0"
     fit-margin-right="0"
     fit-margin-bottom="0"
     units="px"
     inkscape:snap-grids="true"
     inkscape:snap-others="true"
     inkscape:snap-global="true"
     inkscape:snap-to-guides="false"
     inkscape:object-nodes="true"
     inkscape:snap-smooth-nodes="true"
     inkscape:snap-object-midpoints="true"
     inkscape:snap-center="true">
    <inkscape:grid
       type="xygrid"
       id="grid3342"
       originx="1819.8353"
       originy="1760" />
  </sodipodi:namedview>
  <metadata
     id="metadata7">
    <rdf:RDF>
      <cc:Work
         rdf:about="">
        <dc:format>image/svg+xml</dc:format>
        <dc:type
           rdf:resource="http://purl.org/dc/dcmitype/StillImage" />
        <dc:title></dc:title>
      </cc:Work>
    </rdf:RDF>
  </metadata>
  <g
     inkscape:label="Layer 1"
     inkscape:groupmode="layer"
     id="layer1"
     transform="translate(1819.8355,1689.6378)">
    <rect
       style="fill:#000000;fill-opacity:1;stroke:none"
       id="rect4311-3"
       width="640.00018"
       height="559.99994"
       x="-1120.0002"
       y="2252.3623" />
    <rect
       style="fill:#000000;fill-opacity:1;stroke:none"
       id="rect4311"
       width="1760.0001"
       height="2040"
       x="-1680.0002"
       y="-667.63776" />
    <path
       style="fill:#ffffff;fill-opacity:1;stroke:#000000;stroke-width:120;stroke-miterlimit:4;stroke-dasharray:none;stroke-opacity:1"
       d="m 155.83539,1370.3622 a 957.83551,957.83551 0 0 1 -957.83551,957.8355 957.83551,957.83551 0 0 1 -957.83548,-957.8355 957.83551,957.83551 0 0 1 957.83548,-957.83553 957.83551,957.83551 0 0 1 957.83551,957.83553 z"
       id="path5398"
       inkscape:connector-curvature="0" />
    <circle
       style="fill:#000000;fill-opacity:1;stroke:none;stroke-width:8;stroke-miterlimit:4;stroke-dasharray:none;stroke-opacity:1"
       id="path5406"
       cx="-800.00006"
       cy="652.36218"
       r="40" />
    <ellipse
       style="fill:#ff0000;fill-opacity:1;stroke:none;stroke-width:8;stroke-miterlimit:4;stroke-dasharray:none;stroke-opacity:1"
       id="path5406-3"
       cx="-1520.0001"
       cy="1372.3622"
       rx="29.999989"
       ry="29.999994" />
    <ellipse
       style="fill:#000000;fill-opacity:1;stroke:none;stroke-width:8;stroke-miterlimit:4;stroke-dasharray:none;stroke-opacity:1"
       id="path5406-6-7"
       cx="-1160.0001"
       cy="752.36218"
       inkscape:transform-center-y="-60.000018"
       rx="29.999989"
       ry="29.999994"
       inkscape:transform-center-x="4.785154e-05" />
    <circle
       style="fill:#000000;fill-opacity:1;stroke:none;stroke-width:8;stroke-miterlimit:4;stroke-dasharray:none;stroke-opacity:1"
       id="path5406-6-7-5"
       cx="-1420.0001"
       cy="1012.3622"
       r="40"
       inkscape:transform-center-y="-80" />
    <circle
       style="fill:#ff0000;fill-opacity:1;stroke:none;stroke-width:8;stroke-miterlimit:4;stroke-dasharray:none;stroke-opacity:1"
       id="path5406-6-7-5-3"
       cx="-1420.0001"
       cy="1732.3622"
       r="40"
       inkscape:transform-center-y="-80" />
    <g
       style="font-style:normal;font-weight:normal;font-size:40px;line-height:125%;font-family:sans-serif;letter-spacing:0px;word-spacing:0px;fill:#000000;fill-opacity:1;stroke:none;stroke-width:1px;stroke-linecap:butt;stroke-linejoin:miter;stroke-opacity:1"
       id="text5504">
      <path
         d="m -957.24622,2014.1053 q 14.03809,0 21.36231,-10.2539 7.44629,-10.2539 7.44629,-29.7851 0,-19.5313 -7.44629,-29.7852 -7.32422,-10.2539 -21.36231,-10.2539 -14.03808,0 -21.60644,10.376 -7.44629,10.2539 -7.44629,29.6631 0,19.4092 7.44629,29.7851 7.56836,10.2539 21.60644,10.2539 z m -29.05273,-88.5009 q 9.0332,-11.9629 20.01953,-17.5782 10.98633,-5.7373 25.26856,-5.7373 25.26855,0 41.5039,20.1416 16.23535,20.0196 16.23535,51.6358 0,31.6162 -16.23535,51.7578 -16.23535,20.0195 -41.5039,20.0195 -14.28223,0 -25.26856,-5.6152 -10.98633,-5.7373 -20.01953,-17.7002 l 0,19.7754 -43.70115,0 0,-189.9414 43.70115,0 0,73.2422 z"
         style="font-weight:bold;font-size:250px"
         id="path6522"
         inkscape:connector-curvature="0" />
      <path
         d="m -789.52161,1980.7802 q -13.67187,0 -20.62988,4.6386 -6.83594,4.6387 -6.83594,13.6719 0,8.3008 5.49317,13.0615 5.61523,4.6387 15.50293,4.6387 12.3291,0 20.75195,-8.7891 8.42285,-8.9111 8.42285,-22.2168 l 0,-5.0048 -22.70508,0 z m 66.77246,-16.4795 0,78.0029 -44.06738,0 0,-20.2637 q -8.78906,12.4512 -19.77539,18.1885 -10.98633,5.6152 -26.7334,5.6152 -21.24023,0 -34.5459,-12.3291 -13.18359,-12.4511 -13.18359,-32.2265 0,-24.0479 16.47949,-35.2784 16.60157,-11.2304 52.00196,-11.2304 l 25.75683,0 0,-3.418 q 0,-10.376 -8.17871,-15.1367 -8.17871,-4.8828 -25.51269,-4.8828 -14.03809,0 -26.12305,2.8076 -12.08496,2.8076 -22.46094,8.4228 l 0,-33.3252 q 14.03809,-3.4179 28.19824,-5.1269 14.16016,-1.8311 28.32032,-1.8311 36.9873,0 53.34472,14.6485 16.47949,14.5263 16.47949,47.3633 z"
         style="font-weight:bold;font-size:250px"
         id="path6524"
         inkscape:connector-curvature="0" />
      <path
         d="m -580.29309,1942.8163 q -5.73731,-2.6856 -11.47461,-3.9063 -5.61523,-1.3427 -11.35254,-1.3427 -16.8457,0 -26.00098,10.8642 -9.0332,10.7422 -9.0332,30.8838 l 0,62.9883 -43.70117,0 0,-136.7188 43.70117,0 0,22.461 q 8.42285,-13.4278 19.28711,-19.5313 10.98633,-6.2256 26.24512,-6.2256 2.19726,0 4.76074,0.2442 2.56348,0.1221 7.44629,0.7324 l 0.12207,39.5508 z"
         style="font-weight:bold;font-size:250px"
         id="path6526"
         inkscape:connector-curvature="0" />
    </g>
    <g
       style="font-style:normal;font-weight:normal;font-size:125px;line-height:125%;font-family:sans-serif;letter-spacing:0px;word-spacing:0px;fill:#ff0000;fill-opacity:1;stroke:none;stroke-width:1px;stroke-linecap:butt;stroke-linejoin:miter;stroke-opacity:1"
       id="text5508">
      <path
         d="m -1287.0734,1672.3016 q 0,-17.0898 -3.2348,-24.0478 -3.1739,-7.0191 -10.7422,-7.0191 -7.5684,0 -10.8032,7.0191 -3.2349,6.958 -3.2349,24.0478 0,17.273 3.2349,24.3531 3.2348,7.08 10.8032,7.08 7.5073,0 10.7422,-7.08 3.2348,-7.0801 3.2348,-24.3531 z m 23.4986,0.1831 q 0,22.6441 -9.7657,34.9732 -9.7656,12.2681 -27.7099,12.2681 -18.0054,0 -27.771,-12.2681 -9.7656,-12.3291 -9.7656,-34.9732 0,-22.705 9.7656,-34.9731 9.7656,-12.3291 27.771,-12.3291 17.9443,0 27.7099,12.3291 9.7657,12.2681 9.7657,34.9731 z"
         style="font-weight:bold;font-size:125px"
         id="path5809"
         inkscape:connector-curvature="0" />
    </g>
    <g
       style="font-style:normal;font-weight:normal;font-size:125px;line-height:125%;font-family:sans-serif;letter-spacing:0px;word-spacing:0px;fill:#ff0000;fill-opacity:1;stroke:none;stroke-width:1px;stroke-linecap:butt;stroke-linejoin:miter;stroke-opacity:1"
       id="text5508-5">
      <path
         d="m -1449.9534,1337.6118 43.808,0 0,12.9547 -29.7546,0 0,10.5744 q 2.0141,-0.5493 4.0283,-0.824 2.0599,-0.3204 4.2572,-0.3204 12.4969,0 19.455,6.2713 6.958,6.2256 6.958,17.395 0,11.0779 -7.5989,17.3493 -7.5531,6.2713 -21.0114,6.2713 -5.8136,0 -11.5356,-1.1444 -5.6763,-1.0986 -11.3068,-3.3874 l 0,-13.8703 q 5.5847,3.2044 10.5744,4.8066 5.0354,1.6021 9.4757,1.6021 6.4087,0 10.0708,-3.1128 3.7079,-3.1585 3.7079,-8.5144 0,-5.4016 -3.7079,-8.5144 -3.6621,-3.1128 -10.0708,-3.1128 -3.7995,0 -8.1024,1.0071 -4.303,0.9613 -9.2469,3.0213 l 0,-38.4522 z"
         style="font-weight:bold;font-size:93.75px"
         id="path5803"
         inkscape:connector-curvature="0" />
      <path
         d="m -1351.58,1371.7152 q 0,-12.8174 -2.4261,-18.0359 -2.3804,-5.2643 -8.0566,-5.2643 -5.6763,0 -8.1025,5.2643 -2.4261,5.2185 -2.4261,18.0359 0,12.9547 2.4261,18.2648 2.4262,5.31 8.1025,5.31 5.6304,0 8.0566,-5.31 2.4261,-5.3101 2.4261,-18.2648 z m 17.6239,0.1373 q 0,16.9831 -7.3242,26.2299 -7.3242,9.201 -20.7824,9.201 -13.5041,0 -20.8283,-9.201 -7.3242,-9.2468 -7.3242,-26.2299 0,-17.0288 7.3242,-26.2298 7.3242,-9.2468 20.8283,-9.2468 13.4582,0 20.7824,9.2468 7.3242,9.201 7.3242,26.2298 z"
         style="font-weight:bold;font-size:93.75px"
         id="path5805"
         inkscape:connector-curvature="0" />
    </g>
    <g
       style="font-style:normal;font-weight:normal;font-size:180px;line-height:125%;font-family:sans-serif;letter-spacing:0px;word-spacing:0px;fill:#000000;fill-opacity:1;stroke:none;stroke-width:1px;stroke-linecap:butt;stroke-linejoin:miter;stroke-opacity:1"
       id="text5508-5-2">
      <path
         d="m -1355.1271,1115.7206 20.752,0 0,-58.8989 -21.3013,4.3945 0,-15.9912 21.1792,-4.3946 22.3389,0 0,74.8902 20.7519,0 0,16.2353 -63.7207,0 0,-16.2353 z"
         style="font-weight:bold;font-size:125px"
         id="path5796"
         inkscape:connector-curvature="0" />
      <path
         d="m -1225.3663,1086.3016 q 0,-17.0898 -3.2349,-24.0478 -3.1738,-7.0191 -10.7422,-7.0191 -7.5683,0 -10.8032,7.0191 -3.2349,6.958 -3.2349,24.0478 0,17.273 3.2349,24.3531 3.2349,7.08 10.8032,7.08 7.5073,0 10.7422,-7.08 3.2349,-7.0801 3.2349,-24.3531 z m 23.4985,0.1831 q 0,22.6441 -9.7656,34.9732 -9.7656,12.2681 -27.71,12.2681 -18.0054,0 -27.771,-12.2681 -9.7656,-12.3291 -9.7656,-34.9732 0,-22.705 9.7656,-34.9731 9.7656,-12.3291 27.771,-12.3291 17.9444,0 27.71,12.3291 9.7656,12.2681 9.7656,34.9731 z"
         style="font-weight:bold;font-size:125px"
         id="path5798"
         inkscape:connector-curvature="0" />
      <path
         d="m -1138.4523,1086.3016 q 0,-17.0898 -3.2348,-24.0478 -3.1739,-7.0191 -10.7422,-7.0191 -7.5684,0 -10.8032,7.0191 -3.2349,6.958 -3.2349,24.0478 0,17.273 3.2349,24.3531 3.2348,7.08 10.8032,7.08 7.5073,0 10.7422,-7.08 3.2348,-7.0801 3.2348,-24.3531 z m 23.4986,0.1831 q 0,22.6441 -9.7657,34.9732 -9.7656,12.2681 -27.7099,12.2681 -18.0054,0 -27.771,-12.2681 -9.7656,-12.3291 -9.7656,-34.9732 0,-22.705 9.7656,-34.9731 9.7656,-12.3291 27.771,-12.3291 17.9443,0 27.7099,12.3291 9.7657,12.2681 9.7657,34.9731 z"
         style="font-weight:bold;font-size:125px"
         id="path5800"
         inkscape:connector-curvature="0" />
    </g>
    <g
       style="font-style:normal;font-weight:normal;font-size:180px;line-height:125%;font-family:sans-serif;letter-spacing:0px;word-spacing:0px;fill:#000000;fill-opacity:1;stroke:none;stroke-width:1px;stroke-linecap:butt;stroke-linejoin:miter;stroke-opacity:1"
       id="text5508-5-2-7">
      <path
         d="m -892.8111,787.31921 40.1001,0 0,17.27295 -66.22314,0 0,-17.27295 33.26416,-29.35791 q 4.45556,-4.02832 6.59179,-7.87353 2.13623,-3.84522 2.13623,-7.99561 0,-6.40869 -4.33349,-10.31494 -4.27246,-3.90625 -11.41358,-3.90625 -5.49316,0 -12.02392,2.38037 -6.53076,2.31934 -13.97705,6.95801 l 0,-20.01953 q 7.93457,-2.62451 15.68603,-3.96729 7.75147,-1.4038 15.19776,-1.4038 16.35742,0 25.39062,7.20214 9.09424,7.20215 9.09424,20.08057 0,7.44629 -3.84521,13.91602 -3.84522,6.40869 -16.17432,17.21191 l -19.47022,17.08984 z"
         style="font-weight:bold;font-size:125px"
         id="path5782"
         inkscape:connector-curvature="0" />
      <path
         d="m -784.41266,758.93787 q 0,-17.08985 -3.23486,-24.04786 -3.17383,-7.01904 -10.74219,-7.01904 -7.56836,0 -10.80322,7.01904 -3.23487,6.95801 -3.23487,24.04786 0,17.27295 3.23487,24.35302 3.23486,7.08008 10.80322,7.08008 7.50732,0 10.74219,-7.08008 3.23486,-7.08007 3.23486,-24.35302 z m 23.49854,0.1831 q 0,22.64404 -9.76563,34.97315 -9.76562,12.26806 -27.70996,12.26806 -18.00537,0 -27.771,-12.26806 -9.76562,-12.32911 -9.76562,-34.97315 0,-22.70508 9.76562,-34.97314 9.76563,-12.3291 27.771,-12.3291 17.94434,0 27.70996,12.3291 9.76563,12.26806 9.76563,34.97314 z"
         style="font-weight:bold;font-size:125px"
         id="path5784"
         inkscape:connector-curvature="0" />
      <path
         d="m -697.4986,758.93787 q 0,-17.08985 -3.23486,-24.04786 -3.17383,-7.01904 -10.74219,-7.01904 -7.56836,0 -10.80322,7.01904 -3.23486,6.95801 -3.23486,24.04786 0,17.27295 3.23486,24.35302 3.23486,7.08008 10.80322,7.08008 7.50733,0 10.74219,-7.08008 3.23486,-7.08007 3.23486,-24.35302 z m 23.49854,0.1831 q 0,22.64404 -9.76563,34.97315 -9.76562,12.26806 -27.70996,12.26806 -18.00537,0 -27.77099,-12.26806 -9.76563,-12.32911 -9.76563,-34.97315 0,-22.70508 9.76563,-34.97314 9.76562,-12.3291 27.77099,-12.3291 17.94434,0 27.70996,12.3291 9.76563,12.26806 9.76563,34.97314 z"
         style="font-weight:bold;font-size:125px"
         id="path5786"
         inkscape:connector-curvature="0" />
    </g>
    <g
       style="font-style:normal;font-weight:normal;font-size:180px;line-height:125%;font-family:sans-serif;letter-spacing:0px;word-spacing:0px;fill:#000000;fill-opacity:1;stroke:none;stroke-width:1px;stroke-linecap:butt;stroke-linejoin:miter;stroke-opacity:1"
       id="text5508-5-2-9">
      <path
         d="m -1183.8356,888.95911 15.564,0 0,-44.1742 -15.976,3.2959 0,-11.99341 15.8844,-3.2959 16.7542,0 0,56.16761 15.564,0 0,12.17651 -47.7906,0 0,-12.17651 z"
         style="font-weight:bold;font-size:93.75px"
         id="path5789"
         inkscape:connector-curvature="0" />
      <path
         d="m -1119.7029,832.7915 43.808,0 0,12.95472 -29.7546,0 0,10.57434 q 2.0141,-0.54932 4.0283,-0.82398 2.0599,-0.32043 4.2572,-0.32043 12.4969,0 19.4549,6.27136 6.9581,6.22559 6.9581,17.39502 0,11.07788 -7.5989,17.34924 -7.5531,6.27136 -21.0114,6.27136 -5.8136,0 -11.5356,-1.1444 -5.6763,-1.09864 -11.3068,-3.38746 l 0,-13.87023 q 5.5847,3.20434 10.5744,4.80651 5.0354,1.60218 9.4757,1.60218 6.4087,0 10.0708,-3.1128 3.7078,-3.15857 3.7078,-8.5144 0,-5.40161 -3.7078,-8.51441 -3.6621,-3.11279 -10.0708,-3.11279 -3.7995,0 -8.1025,1.00708 -4.3029,0.96131 -9.2468,3.02124 l 0,-38.45215 z"
         style="font-weight:bold;font-size:93.75px"
         id="path5791"
         inkscape:connector-curvature="0" />
      <path
         d="m -1021.3295,866.8949 q 0,-12.81739 -2.4261,-18.03589 -2.3804,-5.26428 -8.0567,-5.26428 -5.6762,0 -8.1024,5.26428 -2.4261,5.2185 -2.4261,18.03589 0,12.95471 2.4261,18.26477 2.4262,5.31006 8.1024,5.31006 5.6305,0 8.0567,-5.31006 2.4261,-5.31006 2.4261,-18.26477 z m 17.6239,0.13733 q 0,16.98303 -7.3242,26.22985 -7.3242,9.20105 -20.7825,9.20105 -13.504,0 -20.8282,-9.20105 -7.3242,-9.24682 -7.3242,-26.22985 0,-17.02881 7.3242,-26.22986 7.3242,-9.24683 20.8282,-9.24683 13.4583,0 20.7825,9.24683 7.3242,9.20105 7.3242,26.22986 z"
         style="font-weight:bold;font-size:93.75px"
         id="path5793"
         inkscape:connector-curvature="0" />
    </g>
    <text
       xml:space="preserve"
       style="font-style:normal;font-weight:normal;font-size:180px;line-height:125%;font-family:sans-serif;letter-spacing:0px;word-spacing:0px;fill:#000000;fill-opacity:1;stroke:none;stroke-width:1px;stroke-linecap:butt;stroke-linejoin:miter;stroke-opacity:1"
       x="-280.00015"
       y="1512.3622"
       id="text5603"
       sodipodi:linespacing="125%"><tspan
         sodipodi:role="line"
         id="tspan5605"
         x="-280.00015"
         y="1512.3622" /></text>
    <ellipse
       style="fill:#000000;fill-opacity:1;stroke:none;stroke-width:8;stroke-miterlimit:4;stroke-dasharray:none;stroke-opacity:1"
       id="path5406-6-7-6"
       cx="-440.00006"
       cy="752.36224"
       inkscape:transform-center-y="-60.000018"
       rx="29.999989"
       ry="29.999994"
       inkscape:transform-center-x="4.785154e-05" />
    <circle
       style="fill:#000000;fill-opacity:1;stroke:none;stroke-width:8;stroke-miterlimit:4;stroke-dasharray:none;stroke-opacity:1"
       id="path5406-6-7-5-0"
       cx="-180.00008"
       cy="1012.3622"
       r="40"
       inkscape:transform-center-y="-80" />
    <ellipse
       style="fill:#000000;fill-opacity:1;stroke:none;stroke-width:8;stroke-miterlimit:4;stroke-dasharray:none;stroke-opacity:1"
       id="path5406-6-7-6-6"
       cx="-80.000092"
       cy="1372.3622"
       inkscape:transform-center-y="-60.000018"
       rx="29.999989"
       ry="29.999994"
       inkscape:transform-center-x="4.785154e-05" />
    <circle
       style="fill:#000000;fill-opacity:1;stroke:none;stroke-width:8;stroke-miterlimit:4;stroke-dasharray:none;stroke-opacity:1"
       id="path5406-6-7-5-0-2"
       cx="-180.00006"
       cy="1732.3622"
       r="40"
       inkscape:transform-center-y="-80" />
    <g
       style="font-style:normal;font-weight:normal;font-size:180px;line-height:125%;font-family:sans-serif;letter-spacing:0px;word-spacing:0px;fill:#000000;fill-opacity:1;stroke:none;stroke-width:1px;stroke-linecap:butt;stroke-linejoin:miter;stroke-opacity:1"
       id="text5508-5-2-7-6">
      <path
         d="m -428.59433,1079.4589 q 9.21631,2.3803 13.97705,8.3007 4.82178,5.8594 4.82178,14.9537 0,13.5498 -10.37598,20.6298 -10.37597,7.0191 -30.27344,7.0191 -7.01904,0 -14.09912,-1.1597 -7.01904,-1.0986 -13.91601,-3.3569 l 0,-18.1275 q 6.59179,3.2959 13.06152,5.0049 6.53076,1.648 12.81738,1.648 9.33838,0 14.28223,-3.2349 5.00488,-3.2349 5.00488,-9.2773 0,-6.2256 -5.12695,-9.3994 -5.06592,-3.2349 -15.01465,-3.2349 l -9.39941,0 0,-15.1367 9.88769,0 q 8.8501,0 13.1836,-2.7466 4.33349,-2.8076 4.33349,-8.4839 0,-5.249 -4.21142,-8.1177 -4.21143,-2.8686 -11.90186,-2.8686 -5.67627,0 -11.47461,1.2817 -5.79834,1.2817 -11.53564,3.7842 l 0,-17.2119 q 6.95801,-1.9531 13.79394,-2.9297 6.83594,-0.9766 13.42774,-0.9766 17.76123,0 26.55029,5.8594 8.8501,5.7983 8.8501,17.5171 0,7.9956 -4.21143,13.1225 -4.21142,5.066 -12.45117,7.1412 z"
         style="font-weight:bold;font-size:125px"
         id="path5768"
         inkscape:connector-curvature="0" />
      <path
         d="m -342.41269,1082.9379 q 0,-17.0899 -3.23486,-24.0479 -3.17383,-7.019 -10.74219,-7.019 -7.56836,0 -10.80322,7.019 -3.23487,6.958 -3.23487,24.0479 0,17.2729 3.23487,24.353 3.23486,7.0801 10.80322,7.0801 7.50732,0 10.74219,-7.0801 3.23486,-7.0801 3.23486,-24.353 z m 23.49854,0.1831 q 0,22.644 -9.76563,34.9731 -9.76562,12.2681 -27.70996,12.2681 -18.00537,0 -27.771,-12.2681 -9.76562,-12.3291 -9.76562,-34.9731 0,-22.7051 9.76562,-34.9732 9.76563,-12.3291 27.771,-12.3291 17.94434,0 27.70996,12.3291 9.76563,12.2681 9.76563,34.9732 z"
         style="font-weight:bold;font-size:125px"
         id="path5770"
         inkscape:connector-curvature="0" />
      <path
         d="m -255.49863,1082.9379 q 0,-17.0899 -3.23486,-24.0479 -3.17383,-7.019 -10.74219,-7.019 -7.56836,0 -10.80322,7.019 -3.23486,6.958 -3.23486,24.0479 0,17.2729 3.23486,24.353 3.23486,7.0801 10.80322,7.0801 7.50733,0 10.74219,-7.0801 3.23486,-7.0801 3.23486,-24.353 z m 23.49854,0.1831 q 0,22.644 -9.76563,34.9731 -9.76562,12.2681 -27.70996,12.2681 -18.00537,0 -27.77099,-12.2681 -9.76563,-12.3291 -9.76563,-34.9731 0,-22.7051 9.76563,-34.9732 9.76562,-12.3291 27.77099,-12.3291 17.94434,0 27.70996,12.3291 9.76563,12.2681 9.76563,34.9732 z"
         style="font-weight:bold;font-size:125px"
         id="path5772"
         inkscape:connector-curvature="0" />
    </g>
    <g
       style="font-style:normal;font-weight:normal;font-size:180px;line-height:125%;font-family:sans-serif;letter-spacing:0px;word-spacing:0px;fill:#000000;fill-opacity:1;stroke:none;stroke-width:1px;stroke-linecap:butt;stroke-linejoin:miter;stroke-opacity:1"
       id="text5508-5-2-7-6-8">
      <path
         d="m -446.80136,1649.3583 -25.75684,38.1469 25.75684,0 0,-38.1469 z m -3.90625,-19.3482 26.12305,0 0,57.4951 13.00048,0 0,17.0289 -13.00048,0 0,16.6015 -22.2168,0 0,-16.6015 -40.40527,0 0,-20.1416 36.49902,-54.3824 z"
         style="font-weight:bold;font-size:125px"
         id="path5754"
         inkscape:connector-curvature="0" />
      <path
         d="m -348.41269,1675.4813 q 0,-17.0898 -3.23486,-24.0478 -3.17383,-7.0191 -10.74219,-7.0191 -7.56836,0 -10.80322,7.0191 -3.23487,6.958 -3.23487,24.0478 0,17.273 3.23487,24.3531 3.23486,7.08 10.80322,7.08 7.50732,0 10.74219,-7.08 3.23486,-7.0801 3.23486,-24.3531 z m 23.49854,0.1831 q 0,22.6441 -9.76563,34.9732 -9.76562,12.268 -27.70996,12.268 -18.00537,0 -27.771,-12.268 -9.76562,-12.3291 -9.76562,-34.9732 0,-22.705 9.76562,-34.9731 9.76563,-12.3291 27.771,-12.3291 17.94434,0 27.70996,12.3291 9.76563,12.2681 9.76563,34.9731 z"
         style="font-weight:bold;font-size:125px"
         id="path5756"
         inkscape:connector-curvature="0" />
      <path
         d="m -261.49863,1675.4813 q 0,-17.0898 -3.23486,-24.0478 -3.17383,-7.0191 -10.74219,-7.0191 -7.56836,0 -10.80322,7.0191 -3.23486,6.958 -3.23486,24.0478 0,17.273 3.23486,24.3531 3.23486,7.08 10.80322,7.08 7.50733,0 10.74219,-7.08 3.23486,-7.0801 3.23486,-24.3531 z m 23.49854,0.1831 q 0,22.6441 -9.76563,34.9732 -9.76562,12.268 -27.70996,12.268 -18.00537,0 -27.77099,-12.268 -9.76563,-12.3291 -9.76563,-34.9732 0,-22.705 9.76563,-34.9731 9.76562,-12.3291 27.77099,-12.3291 17.94434,0 27.70996,12.3291 9.76563,12.2681 9.76563,34.9731 z"
         style="font-weight:bold;font-size:125px"
         id="path5758"
         inkscape:connector-curvature="0" />
    </g>
    <g
       style="font-style:normal;font-weight:normal;font-size:180px;line-height:125%;font-family:sans-serif;letter-spacing:0px;word-spacing:0px;fill:#000000;fill-opacity:1;stroke:none;stroke-width:1px;stroke-linecap:butt;stroke-linejoin:miter;stroke-opacity:1"
       id="text5508-5-2-9-9">
      <path
         d="m -584.10834,878.07996 30.07508,0 0,12.95471 -49.66736,0 0,-12.95471 24.94812,-22.01844 q 3.34167,-3.02124 4.94385,-5.90515 1.60217,-2.88391 1.60217,-5.9967 0,-4.80652 -3.25012,-7.73621 -3.20435,-2.92969 -8.56018,-2.92969 -4.11988,0 -9.01795,1.78528 -4.89807,1.7395 -10.48279,5.21851 l 0,-15.01465 q 5.95093,-1.96838 11.76453,-2.97546 5.8136,-1.05286 11.39831,-1.05286 12.26807,0 19.04297,5.40161 6.82068,5.40161 6.82068,15.06043 0,5.58471 -2.88391,10.43701 -2.88391,4.80652 -12.13074,12.90893 l -14.60266,12.81739 z"
         style="font-weight:bold;font-size:93.75px"
         id="path5775"
         inkscape:connector-curvature="0" />
      <path
         d="m -535.99738,822.69055 43.80799,0 0,12.95471 -29.75464,0 0,10.57434 q 2.01416,-0.54931 4.02832,-0.82397 2.05994,-0.32043 4.2572,-0.32043 12.49695,0 19.45496,6.27136 6.95801,6.22558 6.95801,17.39502 0,11.07788 -7.59888,17.34924 -7.5531,6.27136 -21.01135,6.27136 -5.8136,0 -11.53565,-1.14441 -5.67627,-1.09863 -11.30676,-3.38745 l 0,-13.87024 q 5.58472,3.20435 10.57434,4.80652 5.0354,1.60217 9.47571,1.60217 6.40869,0 10.0708,-3.11279 3.70788,-3.15857 3.70788,-8.5144 0,-5.40161 -3.70788,-8.51441 -3.66211,-3.11279 -10.0708,-3.11279 -3.79944,0 -8.10242,1.00708 -4.30298,0.9613 -9.24683,3.02124 l 0,-38.45215 z"
         style="font-weight:bold;font-size:93.75px"
         id="path5777"
         inkscape:connector-curvature="0" />
      <path
         d="m -437.62396,856.79395 q 0,-12.81739 -2.42615,-18.03589 -2.38037,-5.26429 -8.05664,-5.26429 -5.67627,0 -8.10242,5.26429 -2.42614,5.2185 -2.42614,18.03589 0,12.95471 2.42614,18.26477 2.42615,5.31005 8.10242,5.31005 5.63049,0 8.05664,-5.31005 2.42615,-5.31006 2.42615,-18.26477 z m 17.6239,0.13732 q 0,16.98304 -7.32422,26.22986 -7.32422,9.20105 -20.78247,9.20105 -13.50403,0 -20.82825,-9.20105 -7.32422,-9.24682 -7.32422,-26.22986 0,-17.0288 7.32422,-26.22985 7.32422,-9.24683 20.82825,-9.24683 13.45825,0 20.78247,9.24683 7.32422,9.20105 7.32422,26.22985 z"
         style="font-weight:bold;font-size:93.75px"
         id="path5779"
         inkscape:connector-curvature="0" />
    </g>
    <g
       style="font-style:normal;font-weight:normal;font-size:180px;line-height:125%;font-family:sans-serif;letter-spacing:0px;word-spacing:0px;fill:#000000;fill-opacity:1;stroke:none;stroke-width:1px;stroke-linecap:butt;stroke-linejoin:miter;stroke-opacity:1"
       id="text5508-5-2-9-9-0">
      <path
         d="m -299.44577,1374.1847 q 6.91223,1.7853 10.48279,6.2256 3.61633,4.3945 3.61633,11.2152 0,10.1623 -7.78198,15.4724 -7.78198,5.2643 -22.70508,5.2643 -5.26428,0 -10.57434,-0.8698 -5.26428,-0.8239 -10.43701,-2.5177 l 0,-13.5955 q 4.94385,2.4719 9.79614,3.7536 4.89807,1.236 9.61304,1.236 7.00378,0 10.71167,-2.4262 3.75366,-2.4261 3.75366,-6.958 0,-4.6692 -3.84522,-7.0495 -3.79943,-2.4262 -11.26098,-2.4262 l -7.04956,0 0,-11.3525 7.41577,0 q 6.63757,0 9.88769,-2.06 3.25013,-2.1057 3.25013,-6.3629 0,-3.9367 -3.15857,-6.0882 -3.15857,-2.1515 -8.92639,-2.1515 -4.25721,0 -8.60596,0.9613 -4.34876,0.9613 -8.65173,2.8381 l 0,-12.9089 q 5.2185,-1.4649 10.34545,-2.1973 5.12696,-0.7324 10.07081,-0.7324 13.32092,0 19.91271,4.3945 6.63758,4.3488 6.63758,13.1378 0,5.9967 -3.15857,9.842 -3.15857,3.7994 -9.33838,5.3558 z"
         style="font-weight:bold;font-size:93.75px"
         id="path5761"
         inkscape:connector-curvature="0" />
      <path
         d="m -267.99741,1342.6906 43.80799,0 0,12.9547 -29.75464,0 0,10.5743 q 2.01416,-0.5493 4.02832,-0.824 2.05994,-0.3204 4.2572,-0.3204 12.49695,0 19.45496,6.2714 6.95801,6.2255 6.95801,17.395 0,11.0779 -7.59888,17.3492 -7.5531,6.2714 -21.01135,6.2714 -5.8136,0 -11.53565,-1.1444 -5.67627,-1.0987 -11.30676,-3.3875 l 0,-13.8702 q 5.58472,3.2043 10.57434,4.8065 5.0354,1.6022 9.47571,1.6022 6.40869,0 10.0708,-3.1128 3.70788,-3.1586 3.70788,-8.5144 0,-5.4016 -3.70788,-8.5144 -3.66211,-3.1128 -10.0708,-3.1128 -3.79944,0 -8.10242,1.0071 -4.30298,0.9613 -9.24683,3.0212 l 0,-38.4521 z"
         style="font-weight:bold;font-size:93.75px"
         id="path5763"
         inkscape:connector-curvature="0" />
      <path
         d="m -169.62399,1376.7939 q 0,-12.8173 -2.42615,-18.0358 -2.38037,-5.2643 -8.05664,-5.2643 -5.67627,0 -8.10242,5.2643 -2.42615,5.2185 -2.42615,18.0358 0,12.9548 2.42615,18.2648 2.42615,5.3101 8.10242,5.3101 5.63049,0 8.05664,-5.3101 2.42615,-5.31 2.42615,-18.2648 z m 17.6239,0.1374 q 0,16.983 -7.32422,26.2298 -7.32422,9.2011 -20.78247,9.2011 -13.50403,0 -20.82825,-9.2011 -7.32422,-9.2468 -7.32422,-26.2298 0,-17.0288 7.32422,-26.2299 7.32422,-9.2468 20.82825,-9.2468 13.45825,0 20.78247,9.2468 7.32422,9.2011 7.32422,26.2299 z"
         style="font-weight:bold;font-size:93.75px"
         id="path5765"
         inkscape:connector-curvature="0" />
    </g>
    <path
       style="fill:#c4d1dc;fill-opacity:1;stroke:#000000;stroke-width:120;stroke-miterlimit:4;stroke-dasharray:none;stroke-opacity:1"
       d="m 159.67089,-671.80227 a 957.83551,957.83551 0 0 1 -957.8355,957.83546 957.83551,957.83551 0 0 1 -957.83559,-957.83546 957.83551,957.83551 0 0 1 957.83559,-957.83553 957.83551,957.83551 0 0 1 957.8355,957.83553 z"
       id="path5398-3"
       inkscape:connector-curvature="0" />
    <path
       style="fill:#000000;fill-opacity:1;fill-rule:evenodd;stroke:#282828;stroke-width:40;stroke-linecap:butt;stroke-linejoin:round;stroke-miterlimit:4;stroke-dasharray:none;stroke-opacity:1"
       d="m -1120.0002,52.362228 c -80,-80 -40,-159.999998 40,-199.999998 80,-40 480.00005,-40 560.00005,0 80,40 120,119.999998 40,199.999998 -80,80.000002 -240,40 -320,40 -80,0 -240.00005,40.000002 -320.00005,-40 z"
       id="path4315"
       inkscape:connector-curvature="0"
       sodipodi:nodetypes="zzzczz" />
    <path
       style="fill:none;fill-rule:evenodd;stroke:#002828;stroke-width:20;stroke-linecap:butt;stroke-linejoin:round;stroke-miterlimit:4;stroke-dasharray:none;stroke-opacity:1"
       d="m 39.999847,-907.63777 -839.999997,0 -5e-5,599.99997 -800,3e-5"
       id="path4321"
       inkscape:connector-curvature="0"
       sodipodi:nodetypes="cccc" />
    <rect
       style="fill:#002828;fill-opacity:1;stroke:#002828;stroke-width:20;stroke-linejoin:round;stroke-miterlimit:4;stroke-dasharray:none;stroke-opacity:1"
       id="rect4323"
       width="560"
       height="160"
       x="-660.00012"
       y="-441.63782" />
    <g
       style="font-style:normal;font-weight:normal;font-size:40px;line-height:125%;font-family:sans-serif;letter-spacing:0px;word-spacing:0px;fill:#c4d1dc;fill-opacity:1;stroke:none;stroke-width:1px;stroke-linecap:butt;stroke-linejoin:miter;stroke-opacity:1"
       id="text4325">
      <path
         d="m -603.7384,-397.24817 18.89648,0 23.86231,45 0,-45 16.04003,0 0,65.61035 -18.89648,0 -23.8623,-45 0,45 -16.04004,0 0,-65.61035 z"
         style="font-weight:bold;font-size:90px;fill:#c4d1dc;fill-opacity:1"
         id="path4542"
         inkscape:connector-curvature="0" />
      <path
         d="m -498.35754,-386.17395 q -7.73438,0 -11.99707,5.71289 -4.2627,5.71289 -4.2627,16.08398 0,10.32715 4.2627,16.04004 4.26269,5.71289 11.99707,5.71289 7.77832,0 12.04101,-5.71289 4.2627,-5.71289 4.2627,-16.04004 0,-10.37109 -4.2627,-16.08398 -4.26269,-5.71289 -12.04101,-5.71289 z m 0,-12.26074 q 15.82031,0 24.78515,9.05273 8.96485,9.05274 8.96485,25.00488 0,15.90821 -8.96485,24.96094 -8.96484,9.05274 -24.78515,9.05274 -15.77637,0 -24.78516,-9.05274 -8.96484,-9.05273 -8.96484,-24.96094 0,-15.95214 8.96484,-25.00488 9.00879,-9.05273 24.78516,-9.05273 z"
         style="font-weight:bold;font-size:90px;fill:#c4d1dc;fill-opacity:1"
         id="path4544"
         inkscape:connector-curvature="0" />
      <path
         d="m -403.6554,-384.46008 0,40.03418 6.06446,0 q 10.37109,0 15.82031,-5.1416 5.49316,-5.14161 5.49316,-14.94141 0,-9.75586 -5.44921,-14.85352 -5.44922,-5.09765 -15.86426,-5.09765 l -6.06446,0 z m -16.91894,-12.78809 17.8418,0 q 14.9414,0 22.23632,2.15332 7.33887,2.10938 12.56836,7.20703 4.61426,4.43848 6.85547,10.23926 2.24121,5.80078 2.24121,13.13965 0,7.42676 -2.24121,13.27148 -2.24121,5.80078 -6.85547,10.23926 -5.27343,5.09766 -12.65625,7.25098 -7.38281,2.10937 -22.14843,2.10937 l -17.8418,0 0,-65.61035 z"
         style="font-weight:bold;font-size:90px;fill:#c4d1dc;fill-opacity:1"
         id="path4546"
         inkscape:connector-curvature="0" />
      <path
         d="m -345.86731,-397.24817 45.65918,0 0,12.78809 -28.74023,0 0,12.21679 27.02636,0 0,12.78809 -27.02636,0 0,15.0293 29.70703,0 0,12.78808 -46.62598,0 0,-65.61035 z"
         style="font-weight:bold;font-size:90px;fill:#c4d1dc;fill-opacity:1"
         id="path4548"
         inkscape:connector-curvature="0" />
      <path
         d="m -232.31262,-335.24133 q -4.65821,2.41699 -9.71192,3.64746 -5.05371,1.23047 -10.54687,1.23047 -16.3916,0 -25.97168,-9.14063 -9.58008,-9.18457 -9.58008,-24.87305 0,-15.73242 9.58008,-24.87304 9.58008,-9.18457 25.97168,-9.18457 5.49316,0 10.54687,1.23047 5.05371,1.23047 9.71192,3.64746 l 0,13.5791 q -4.70215,-3.20801 -9.27246,-4.70215 -4.57032,-1.49414 -9.62403,-1.49414 -9.05273,0 -14.23828,5.80078 -5.18554,5.80078 -5.18554,15.99609 0,10.15137 5.18554,15.95215 5.18555,5.80078 14.23828,5.80078 5.05371,0 9.62403,-1.49414 4.57031,-1.49414 9.27246,-4.70214 l 0,13.5791 z"
         style="font-weight:bold;font-size:90px;fill:#c4d1dc;fill-opacity:1"
         id="path4550"
         inkscape:connector-curvature="0" />
      <path
         d="m -188.27942,-386.17395 q -7.73437,0 -11.99707,5.71289 -4.26269,5.71289 -4.26269,16.08398 0,10.32715 4.26269,16.04004 4.2627,5.71289 11.99707,5.71289 7.77832,0 12.04102,-5.71289 4.26269,-5.71289 4.26269,-16.04004 0,-10.37109 -4.26269,-16.08398 -4.2627,-5.71289 -12.04102,-5.71289 z m 0,-12.26074 q 15.82031,0 24.78516,9.05273 8.96484,9.05274 8.96484,25.00488 0,15.90821 -8.96484,24.96094 -8.96485,9.05274 -24.78516,9.05274 -15.77637,0 -24.78516,-9.05274 -8.96484,-9.05273 -8.96484,-24.96094 0,-15.95214 8.96484,-25.00488 9.00879,-9.05273 24.78516,-9.05273 z"
         style="font-weight:bold;font-size:90px;fill:#c4d1dc;fill-opacity:1"
         id="path4552"
         inkscape:connector-curvature="0" />
    </g>
    <g
       transform="matrix(1.2227999,0,0,0.81779529,0,6)"
       style="font-style:normal;font-weight:normal;font-size:48.91199875px;line-height:125%;font-family:sans-serif;letter-spacing:0px;word-spacing:0px;fill:#002828;fill-opacity:1;stroke:none;stroke-width:1px;stroke-linecap:butt;stroke-linejoin:miter;stroke-opacity:1"
       id="text4317-6-5">
      <path
         d="m -136.80605,-847.80939 13.22754,0 16.74317,44.64844 16.831052,-44.64844 13.227539,0 0,65.61035 -8.657226,0 0,-57.6123 -16.918945,45 -8.9209,0 -16.91894,-45 0,57.6123 -8.61329,0 0,-65.61035 z"
         style="font-weight:normal;font-size:90px;fill:#002828;fill-opacity:1"
         id="path4555"
         inkscape:connector-curvature="0" />
      <path
         d="m -59.110733,-847.80939 8.876953,0 0,65.61035 -8.876953,0 0,-65.61035 z"
         style="font-weight:normal;font-size:90px;fill:#002828;fill-opacity:1"
         id="path4557"
         inkscape:connector-curvature="0" />
      <path
         d="m -32.567764,-847.80939 11.953125,0 29.0917966,54.8877 0,-54.8877 8.6132814,0 0,65.61035 -11.9531252,0 -29.0917968,-54.88769 0,54.88769 -8.613281,0 0,-65.61035 z"
         style="font-weight:normal;font-size:90px;fill:#002828;fill-opacity:1"
         id="path4559"
         inkscape:connector-curvature="0" />
    </g>
    <flowRoot
       xml:space="preserve"
       id="flowRoot4370"
       style="font-style:normal;font-weight:normal;font-size:40px;line-height:125%;font-family:sans-serif;letter-spacing:0px;word-spacing:0px;fill:#000000;fill-opacity:1;stroke:none;stroke-width:1px;stroke-linecap:butt;stroke-linejoin:miter;stroke-opacity:1"
       transform="translate(-1807.8356,-1679.1443)"><flowRegion
         id="flowRegion4372"><rect
           id="rect4374"
           width="40"
           height="80"
           x="1807.8354"
           y="1231.5065" /></flowRegion><flowPara
         id="flowPara4376"></flowPara></flowRoot>    <text
       xml:space="preserve"
       style="font-style:normal;font-weight:normal;font-size:40px;line-height:125%;font-family:sans-serif;letter-spacing:0px;word-spacing:0px;fill:#002828;fill-opacity:1;stroke:none;stroke-width:1px;stroke-linecap:butt;stroke-linejoin:miter;stroke-opacity:1"
       x="-548.29218"
       y="-988.80872"
       id="text4325-6"
       sodipodi:linespacing="125%"><tspan
         sodipodi:role="line"
         id="tspan4327-1"
         x="-548.29218"
         y="-988.80872"
         style="font-weight:bold;font-size:90px;fill:#002828;fill-opacity:1">DEPTH</tspan></text>
    <g
       style="font-style:normal;font-weight:normal;font-size:40px;line-height:125%;font-family:sans-serif;letter-spacing:0px;word-spacing:0px;fill:#002828;fill-opacity:1;stroke:none;stroke-width:1px;stroke-linecap:butt;stroke-linejoin:miter;stroke-opacity:1"
       id="text4325-6-1"
       transform="translate(0,-12)">
      <path
         d="m -1520.0304,-442.41904 21.5332,0 14.9414,35.11231 15.0293,-35.11231 21.4893,0 0,65.61035 -15.9961,0 0,-47.98828 -15.1172,35.37598 -10.7227,0 -15.1172,-35.37598 0,47.98828 -16.04,0 0,-65.61035 z"
         style="font-weight:bold;font-size:90px;fill:#002828;fill-opacity:1"
         id="path4575"
         inkscape:connector-curvature="0" />
      <path
         d="m -1390.5675,-388.76181 -26.4551,0 -4.1748,11.95312 -17.0068,0 24.3017,-65.61035 20.1709,0 24.3018,65.61035 -17.0068,0 -4.1309,-11.95312 z m -22.2363,-12.17285 17.9736,0 -8.9648,-26.10352 -9.0088,26.10352 z"
         style="font-weight:bold;font-size:90px;fill:#002828;fill-opacity:1"
         id="path4577"
         inkscape:connector-curvature="0" />
      <path
         d="m -1324.2101,-410.29501 22.7637,33.48632 -17.6221,0 -15.3369,-22.4121 -15.2051,22.4121 -17.7099,0 22.7636,-33.48632 -21.8847,-32.12403 17.666,0 14.3701,21.1377 14.3262,-21.1377 17.7539,0 -21.8848,32.12403 z"
         style="font-weight:bold;font-size:90px;fill:#002828;fill-opacity:1"
         id="path4579"
         inkscape:connector-curvature="0" />
      <path
         d="m -1243.131,-429.63095 0,40.03418 6.0645,0 q 10.3711,0 15.8203,-5.1416 5.4931,-5.1416 5.4931,-14.94141 0,-9.75586 -5.4492,-14.85351 -5.4492,-5.09766 -15.8642,-5.09766 l -6.0645,0 z m -16.9189,-12.78809 17.8418,0 q 14.9414,0 22.2363,2.15332 7.3389,2.10938 12.5684,7.20703 4.6142,4.43848 6.8554,10.23926 2.2412,5.80078 2.2412,13.13965 0,7.42676 -2.2412,13.27149 -2.2412,5.80078 -6.8554,10.23925 -5.2735,5.09766 -12.6563,7.25098 -7.3828,2.10937 -22.1484,2.10937 l -17.8418,0 0,-65.61035 z"
         style="font-weight:bold;font-size:90px;fill:#002828;fill-opacity:1"
         id="path4581"
         inkscape:connector-curvature="0" />
      <path
         d="m -1185.3429,-442.41904 45.6592,0 0,12.78809 -28.7403,0 0,12.2168 27.0264,0 0,12.78808 -27.0264,0 0,15.0293 29.7071,0 0,12.78808 -46.626,0 0,-65.61035 z"
         style="font-weight:bold;font-size:90px;fill:#002828;fill-opacity:1"
         id="path4583"
         inkscape:connector-curvature="0" />
      <path
         d="m -1123.8195,-442.41904 28.0811,0 q 12.5244,0 19.2041,5.58106 6.7236,5.53711 6.7236,15.82031 0,10.32715 -6.7236,15.9082 -6.6797,5.53711 -19.2041,5.53711 l -11.1621,0 0,22.76367 -16.919,0 0,-65.61035 z m 16.919,12.26075 0,18.32519 9.3603,0 q 4.9219,0 7.6026,-2.37305 2.6806,-2.41699 2.6806,-6.81152 0,-4.39453 -2.6806,-6.76758 -2.6807,-2.37304 -7.6026,-2.37304 l -9.3603,0 z"
         style="font-weight:bold;font-size:90px;fill:#002828;fill-opacity:1"
         id="path4585"
         inkscape:connector-curvature="0" />
      <path
         d="m -1065.7238,-442.41904 60.4688,0 0,12.78809 -21.7529,0 0,52.82226 -16.919,0 0,-52.82226 -21.7969,0 0,-12.78809 z"
         style="font-weight:bold;font-size:90px;fill:#002828;fill-opacity:1"
         id="path4587"
         inkscape:connector-curvature="0" />
      <path
         d="m -996.55383,-442.41904 16.91894,0 0,25.00489 24.96094,0 0,-25.00489 16.91895,0 0,65.61035 -16.91895,0 0,-27.81738 -24.96094,0 0,27.81738 -16.91894,0 0,-65.61035 z"
         style="font-weight:bold;font-size:90px;fill:#002828;fill-opacity:1"
         id="path4589"
         inkscape:connector-curvature="0" />
    </g>
    <text
       xml:space="preserve"
       style="font-style:normal;font-weight:normal;font-size:40px;line-height:125%;font-family:sans-serif;letter-spacing:0px;word-spacing:0px;fill:#002828;fill-opacity:1;stroke:none;stroke-width:1px;stroke-linecap:butt;stroke-linejoin:miter;stroke-opacity:1"
       x="-1450.7316"
       y="-992.08557"
       id="text4325-6-9"
       sodipodi:linespacing="125%"><tspan
         sodipodi:role="line"
         id="tspan4327-1-4"
         x="-1450.7316"
         y="-992.08557"
         style="font-weight:bold;font-size:80px;fill:#002828;fill-opacity:1">DIVE TIME</tspan></text>
    <path
       style="fill:none;fill-rule:evenodd;stroke:#002828;stroke-width:20;stroke-linecap:butt;stroke-linejoin:round;stroke-miterlimit:4;stroke-dasharray:none;stroke-opacity:1"
       d="m -880.00015,-1507.6378 0,600.00003 -680.00005,0"
       id="path4321-9"
       inkscape:connector-curvature="0"
       sodipodi:nodetypes="ccc" />
    <g
       transform="matrix(1.2227999,0,0,0.81779529,-16,56)"
       style="font-style:normal;font-weight:normal;font-size:48.91199875px;line-height:125%;font-family:sans-serif;letter-spacing:0px;word-spacing:0px;fill:#002828;fill-opacity:1;stroke:none;stroke-width:1px;stroke-linecap:butt;stroke-linejoin:miter;stroke-opacity:1"
       id="text4317-6-5-1">
      <path
         d="m -884.59802,-1554.6787 10.28808,0 13.02246,34.7266 13.09082,-34.7266 10.28809,0 0,51.0303 -6.7334,0 0,-44.8096 -13.15918,35 -6.93847,0 -13.15918,-35 0,44.8096 -6.69922,0 0,-51.0303 z"
         style="font-weight:normal;font-size:70px;fill:#002828;fill-opacity:1"
         id="path4565"
         inkscape:connector-curvature="0" />
      <path
         d="m -824.16833,-1554.6787 6.90429,0 0,51.0303 -6.90429,0 0,-51.0303 z"
         style="font-weight:normal;font-size:70px;fill:#002828;fill-opacity:1"
         id="path4567"
         inkscape:connector-curvature="0" />
      <path
         d="m -803.5238,-1554.6787 9.29687,0 22.62695,42.6904 0,-42.6904 6.69922,0 0,51.0303 -9.29687,0 -22.62695,-42.6905 0,42.6905 -6.69922,0 0,-51.0303 z"
         style="font-weight:normal;font-size:70px;fill:#002828;fill-opacity:1"
         id="path4569"
         inkscape:connector-curvature="0" />
    </g>
    <g
       transform="scale(1.2227999,0.81779529)"
       style="font-style:normal;font-weight:normal;font-size:48.91199875px;line-height:125%;font-family:sans-serif;letter-spacing:0px;word-spacing:0px;fill:#002828;fill-opacity:1;stroke:none;stroke-width:1px;stroke-linecap:butt;stroke-linejoin:miter;stroke-opacity:1"
       id="text4317-6-5-7">
      <path
         d="m -152.99445,-1442.1311 q 3.03223,-5.4492 7.25098,-8.042 4.21875,-2.5928 9.93164,-2.5928 7.69043,0 11.86524,5.4053 4.1748,5.3613 4.1748,15.293 l 0,29.707 -8.12988,0 0,-29.4434 q 0,-7.0752 -2.50489,-10.5029 -2.50488,-3.4277 -7.64648,-3.4277 -6.28418,0 -9.93164,4.1748 -3.64746,4.1748 -3.64746,11.3818 l 0,27.8174 -8.12988,0 0,-29.4434 q 0,-7.1191 -2.50489,-10.5029 -2.50488,-3.4277 -7.73437,-3.4277 -6.19629,0 -9.84375,4.2187 -3.64746,4.1748 -3.64746,11.3379 l 0,27.8174 -8.12989,0 0,-49.2187 8.12989,0 0,7.6464 q 2.76855,-4.5263 6.63574,-6.6796 3.86719,-2.1534 9.18457,-2.1534 5.36133,0 9.09668,2.7246 3.7793,2.7246 5.58105,7.9102 z"
         style="font-weight:normal;font-size:90px;fill:#002828;fill-opacity:1"
         id="path4562"
         inkscape:connector-curvature="0" />
    </g>
    <g
       transform="scale(1.2227999,0.81779529)"
       style="font-style:normal;font-weight:normal;font-size:48.91199875px;line-height:125%;font-family:sans-serif;letter-spacing:0px;word-spacing:0px;fill:#002828;fill-opacity:1;stroke:none;stroke-width:1px;stroke-linecap:butt;stroke-linejoin:miter;stroke-opacity:1"
       id="text4317-6-5-7-1">
      <path
         d="m -772.56781,-750.25088 q 3.03223,-5.44921 7.25098,-8.04199 4.21875,-2.59277 9.93164,-2.59277 7.69043,0 11.86523,5.40527 4.17481,5.36133 4.17481,15.29297 l 0,29.70703 -8.12989,0 0,-29.44336 q 0,-7.07519 -2.50488,-10.50293 -2.50488,-3.42773 -7.64648,-3.42773 -6.28418,0 -9.93164,4.1748 -3.64747,4.17481 -3.64747,11.38184 l 0,27.81738 -8.12988,0 0,-29.44336 q 0,-7.11914 -2.50488,-10.50293 -2.50488,-3.42773 -7.73438,-3.42773 -6.19629,0 -9.84375,4.21875 -3.64746,4.1748 -3.64746,11.33789 l 0,27.81738 -8.12988,0 0,-49.21875 8.12988,0 0,7.64649 q 2.76856,-4.52637 6.63575,-6.67969 3.86718,-2.15332 9.18457,-2.15332 5.36132,0 9.09668,2.72461 3.77929,2.72461 5.58105,7.91015 z"
         style="font-weight:normal;font-size:90px;fill:#002828;fill-opacity:1"
         id="path4572"
         inkscape:connector-curvature="0" />
    </g>
  </g>
</svg>
