<?xml version="1.0" encoding="UTF-8" standalone="no"?>
<!-- Created with Inkscape (http://www.inkscape.org/) -->

<svg
   xmlns:dc="http://purl.org/dc/elements/1.1/"
   xmlns:cc="http://creativecommons.org/ns#"
   xmlns:rdf="http://www.w3.org/1999/02/22-rdf-syntax-ns#"
   xmlns:svg="http://www.w3.org/2000/svg"
   xmlns="http://www.w3.org/2000/svg"
   xmlns:sodipodi="http://sodipodi.sourceforge.net/DTD/sodipodi-0.dtd"
   xmlns:inkscape="http://www.inkscape.org/namespaces/inkscape"
   width="217.31219"
   height="218.50085"
   viewBox="0 0 217.3122 218.50086"
   id="svg4619"
   version="1.1"
   inkscape:version="0.91 r13725"
   sodipodi:docname="right-lung.svg">
  <defs
     id="defs4621" />
  <sodipodi:namedview
     id="base"
     pagecolor="#ffffff"
     bordercolor="#666666"
     borderopacity="1.0"
     inkscape:pageopacity="0.0"
     inkscape:pageshadow="2"
     inkscape:zoom="1.979899"
     inkscape:cx="35.415783"
     inkscape:cy="182.68228"
     inkscape:document-units="px"
     inkscape:current-layer="layer1"
     showgrid="true"
     inkscape:object-nodes="true"
     inkscape:snap-smooth-nodes="true"
     inkscape:snap-midpoints="false"
     inkscape:snap-object-midpoints="true"
     inkscape:snap-bbox="true"
     inkscape:snap-bbox-midpoints="true"
     inkscape:snap-bbox-edge-midpoints="true"
     inkscape:bbox-nodes="true"
     inkscape:snap-grids="true"
     units="px"
     fit-margin-top="0"
     fit-margin-left="0"
     fit-margin-right="0"
     fit-margin-bottom="0"
     inkscape:window-width="1316"
     inkscape:window-height="1183"
     inkscape:window-x="604"
     inkscape:window-y="0"
     inkscape:window-maximized="0">
    <inkscape:grid
       type="xygrid"
       id="grid5167"
       originx="-251.34391"
       originy="-392.00001" />
  </sodipodi:namedview>
  <metadata
     id="metadata4624">
    <rdf:RDF>
      <cc:Work
         rdf:about="">
        <dc:format>image/svg+xml</dc:format>
        <dc:type
           rdf:resource="http://purl.org/dc/dcmitype/StillImage" />
        <dc:title />
      </cc:Work>
    </rdf:RDF>
  </metadata>
  <g
     inkscape:label="Layer 1"
     inkscape:groupmode="layer"
     id="layer1"
     transform="translate(-251.3439,-441.86133)">
    <path
       style="fill:#f4abaf;fill-opacity:1;fill-rule:evenodd;stroke:#000000;stroke-width:1px;stroke-linecap:butt;stroke-linejoin:miter;stroke-opacity:1"
       d="m 384.04959,465.29752 c 3.24416,-0.76584 7.83772,0.94591 11,2 7.90569,2.63523 14.41884,8.8117 20,15 6.50869,7.21674 10.32349,16.48092 15,25 3.58672,6.53383 7.58105,12.94988 10,20 5.51606,16.07675 8.32518,33.08599 10,49.99999 2.13498,21.56122 17.57691,52.33128 0,65 -21.37811,15.40847 -55.09204,-7.73392 -75,-25 -2.81541,-2.44179 -4.14376,-6.37292 -5,-10 -9.19012,-38.92996 -6.40729,-80.51649 0,-119.99999 0.84423,-5.2024 2.05768,-11.27941 5,-15 2.42448,-3.06577 5.06108,-5.9472 8.45686,-6.85483 0.54314,-0.14517 0.36006,-0.10195 0.54314,-0.14517 z"
       id="path5256-7"
       inkscape:connector-curvature="0"
       sodipodi:nodetypes="sssssssssssss" />
  </g>
</svg>
